<svg width="162" height="40" viewBox="0 0 162 40" fill="none" xmlns="http://www.w3.org/2000/svg">
<g clip-path="url(#clip0)">
<path d="M5.88 16.88H26.08V19.28L15.6 35.24C15.36 35.64 15.36 36.04 15.72 36.36C17.04 37.6 18.36 38.08 19.44 38.08C22.2 38.08 24.36 37.12 27.04 35C31.68 31.24 35.8 24.08 35.8 17.52C35.8 10.2 31.76 7.8 24.76 7.8H5.88C5.36 7.8 5.08 8.08 5.08 8.6V16.08C5.08 16.6 5.36 16.88 5.88 16.88ZM49.32 13.36H72C72.52 13.36 72.8 13.08 72.8 12.56V6.48C72.8 5.96 72.52 5.68 72 5.68H49.32C48.8 5.68 48.52 5.96 48.52 6.48V12.56C48.52 13.08 48.8 13.36 49.32 13.36ZM48 24.48L64.84 24.44V26.8L56.12 34.64C55.76 34.96 55.68 35.32 55.92 35.76C57.36 38 58.84 39.04 61.68 39.04C66.92 39.04 75.28 31.48 75.28 24.36C75.28 19.36 73.64 16.16 63.36 16.16C57.48 16.16 53.64 16.32 47.96 17.04C47.44 17.08 47.2 17.4 47.2 17.88V23.68C47.2 24.2 47.48 24.48 48 24.48ZM87.52 18.36C88.96 18.52 91.12 18.68 94.72 18.68C100.6 18.68 104.72 17.6 104.96 10.32C104.96 9.76 104.68 9.48 104.16 9.48L87.6 9.08C87.08 9.08 86.8 9.36 86.8 9.88V17.48C86.8 17.96 87.04 18.28 87.52 18.36ZM92.12 38.48C109 33.04 113.84 28.28 115.84 25.96C118.48 22.96 118.72 18.72 115.28 15.28C114.92 14.92 114.48 14.92 114.12 15.2L103.24 23.8L88.48 29.4C88 29.6 87.84 29.92 88.04 30.44L91.08 38C91.28 38.44 91.64 38.64 92.12 38.48ZM148.52 26C151.32 22.24 152.64 18.72 152.64 14.44C152.64 9.04 150.16 6.8 144.16 6.8C138.04 6.8 133.76 7.16 127.8 7.92C127.28 7.96 127.04 8.28 127.04 8.76V15.16C127.04 15.68 127.32 15.96 127.84 15.96H141.72L141.68 20.28L125.36 32.56C124.96 32.88 124.88 33.2 125.12 33.68C126.56 36.68 128.52 38.04 131 38.04C134.76 38.04 139.92 34.68 143.92 31.04C144.04 31.24 144.12 31.48 144.24 31.68C145.24 33.52 149.04 36.76 152.96 37.6C153.44 37.68 153.76 37.52 154 37.12L157.6 30.92C157.88 30.48 157.8 30.08 157.28 29.84L148.52 26Z" fill="#520B04"/>
</g>
<defs>
<clipPath id="clip0">
<rect width="162" height="40" fill="white"/>
</clipPath>
</defs>
</svg>
