<svg width="162" height="40" viewBox="0 0 162 40" fill="none" xmlns="http://www.w3.org/2000/svg">
<g clip-path="url(#clip0)">
<path d="M30.76 4.6L17.28 13.08L4.24 18.12C3.8 18.28 3.6 18.6 3.68 19.08C4.12 22.36 6.72 24.28 10.36 24.28C12.16 24.28 14.68 23.72 17.12 23V37C17.12 37.52 17.4 37.8 17.92 37.8H25.96C26.48 37.8 26.76 37.52 26.76 37V18.84C30.04 17 33.44 14.68 36.2 12.16C36.56 11.8 36.6 11.44 36.32 11.04L31.84 4.84C31.56 4.44 31.16 4.32 30.76 4.6ZM69.72 6.96C70.8 6.68 71.56 5.92 71.96 4.56C72.16 3.92 71.88 3.48 71.44 3.32L67.84 2.2C67.36 2.04 66.96 2.2 66.8 2.68L65.88 5.28C65.72 5.76 65.84 6.12 66.24 6.36C67.32 6.92 68.68 7.2 69.72 6.96ZM73.32 8.24C73.32 8.2 73.08 8.2 72.64 8.24L63.64 8.84C63.4 7.84 63.16 6.88 62.92 5.96C62.8 5.52 62.52 5.28 62.04 5.28H54.36C53.84 5.28 53.56 5.6 53.64 6.16L54.24 9.48L46.56 10C46.04 10.04 45.76 10.32 45.8 10.84L46.24 17.6C46.28 18.12 46.56 18.4 47.08 18.36L55.76 17.8L56.4 21.36L45.52 22.08C45 22.12 44.72 22.4 44.76 22.92L45.24 29.72C45.28 30.24 45.56 30.52 46.08 30.48L58 29.68L59.92 39.08C60 39.56 60.36 39.84 60.84 39.76C66.92 39.04 68.84 36.04 67.92 29.6C67.88 29.4 67.88 29.2 67.84 29L75.52 28.48C76.04 28.44 76.32 28.16 76.28 27.64L75.8 20.88C75.76 20.36 75.48 20.08 74.96 20.12L66.12 20.72L65.44 17.16L73.08 16.64C73.6 16.6 73.88 16.32 73.84 15.8L73.32 8.4C74.4 9.12 76.16 9.6 77.36 9.32C78.48 9.08 79.32 8.2 79.64 6.68C79.76 6.16 79.48 5.84 79.04 5.68L75.48 4.56C75 4.4 74.6 4.56 74.44 5.04L73.32 8.24ZM104.44 7.24V25.96L100.08 37.64C99.92 38.08 100 38.48 100.48 38.72C101.88 39.4 103.16 39.64 103.8 39.64C111.24 39.64 114.92 32.72 114.92 20.56C114.92 15 114.56 10.64 113.8 7.12C113.68 6.68 113.4 6.44 112.92 6.44H105.24C104.72 6.44 104.44 6.72 104.44 7.24ZM95.36 7.4H87.6C87.08 7.4 86.8 7.68 86.8 8.2V27.8C86.8 28.32 87.08 28.6 87.6 28.6H95.36C95.88 28.6 96.16 28.32 96.16 27.8V8.2C96.16 7.68 95.88 7.4 95.36 7.4ZM148.52 26C151.32 22.24 152.64 18.72 152.64 14.44C152.64 9.04 150.16 6.8 144.16 6.8C138.04 6.8 133.76 7.16 127.8 7.92C127.28 7.96 127.04 8.28 127.04 8.76V15.16C127.04 15.68 127.32 15.96 127.84 15.96H141.72L141.68 20.28L125.36 32.56C124.96 32.88 124.88 33.2 125.12 33.68C126.56 36.68 128.52 38.04 131 38.04C134.76 38.04 139.92 34.68 143.92 31.04C144.04 31.24 144.12 31.48 144.24 31.68C145.24 33.52 149.04 36.76 152.96 37.6C153.44 37.68 153.76 37.52 154 37.12L157.6 30.92C157.88 30.48 157.8 30.08 157.28 29.84L148.52 26Z" fill="#520B04"/>
</g>
<defs>
<clipPath id="clip0">
<rect width="162" height="40" fill="white"/>
</clipPath>
</defs>
</svg>
