<svg width="162" height="40" viewBox="0 0 162 40" fill="none" xmlns="http://www.w3.org/2000/svg">
<g clip-path="url(#clip0)">
<path d="M25.32 19.12H33.88C34.4 19.12 34.68 18.84 34.68 18.32V11.16C34.68 10.64 34.4 10.36 33.88 10.36H6.96C6.44 10.36 6.16 10.64 6.16 11.16V18.32C6.16 18.84 6.44 19.12 6.96 19.12H15.52V28.12H5.16C4.64 28.12 4.36 28.4 4.36 28.92V36.08C4.36 36.6 4.64 36.88 5.16 36.88H35.68C36.2 36.88 36.48 36.6 36.48 36.08V28.92C36.48 28.4 36.2 28.12 35.68 28.12H25.32V19.12ZM49.84 13.68C51.52 14.2 54.4 15 56.64 15.36C61.48 16.12 63.72 14.92 64.84 10.44C64.96 9.96 64.76 9.64 64.24 9.48L51.68 5.88C51.2 5.72 50.8 5.92 50.68 6.44L49.28 12.68C49.16 13.2 49.36 13.52 49.84 13.68ZM66.16 10.96C67.04 11.72 68.32 12.32 69.36 12.32C70.52 12.32 71.52 11.64 72.24 10.28C72.44 9.8 72.32 9.44 71.88 9.16L68.6 7.24C68.16 7 67.8 7.08 67.52 7.52L66.04 9.84C65.8 10.24 65.76 10.64 66.16 10.96ZM73.04 15C73.92 15.76 75.24 16.36 76.28 16.36C77.44 16.36 78.4 15.68 79.12 14.28C79.32 13.84 79.2 13.48 78.76 13.2L75.52 11.28C75.08 11.04 74.68 11.16 74.4 11.56L72.92 13.88C72.68 14.28 72.68 14.68 73.04 15ZM46.24 25.04C48 25.4 50.96 25.76 53.24 25.84C58.2 26 60.24 24.44 60.72 20C60.8 19.48 60.52 19.16 60.04 19.08L47.12 17.04C46.6 16.96 46.28 17.16 46.24 17.72L45.6 24.12C45.56 24.64 45.76 24.96 46.24 25.04ZM54 39.68C68.88 34.88 73.16 30.68 74.92 28.64C77.24 25.96 77.44 22.24 74.08 18.84C73.72 18.48 73.28 18.52 72.92 18.8L63.36 26.32L50.4 31.24C49.92 31.44 49.76 31.8 49.96 32.28L52.92 39.2C53.12 39.64 53.52 39.84 54 39.68ZM119.76 7.36C119.76 4.44 117.36 2.04 114.44 2.04C111.52 2.04 109.12 4.44 109.12 7.36C109.12 7.96 109.24 8.56 109.4 9.12C108.24 8.88 106.96 8.8 105.56 8.8H86.68C86.16 8.8 85.88 9.08 85.88 9.6V17.08C85.88 17.6 86.16 17.88 86.68 17.88H106.88V20.28L96.4 36.24C96.16 36.64 96.16 37.04 96.52 37.36C97.84 38.6 99.16 39.08 100.24 39.08C103 39.08 105.16 38.12 107.84 36C112.48 32.24 116.6 25.08 116.6 18.52C116.6 16 116.12 14.08 115.2 12.64C117.76 12.24 119.76 10 119.76 7.36ZM113 9.08V5.52H116V9.08H113ZM141.64 5.76H133.24C132.72 5.76 132.44 6.04 132.44 6.56V38.72C132.44 39.24 132.72 39.52 133.24 39.52H141.64C142.16 39.52 142.44 39.24 142.44 38.72V26.32C144.44 28.32 148.56 29.48 151.92 29.36C152.36 29.36 152.64 29.16 152.8 28.72L155.72 21.44C155.92 20.92 155.68 20.56 155.16 20.44L142.44 17.92V6.56C142.44 6.04 142.16 5.76 141.64 5.76Z" fill="#520B04"/>
</g>
<defs>
<clipPath id="clip0">
<rect width="162" height="40" fill="white"/>
</clipPath>
</defs>
</svg>
