<svg width="162" height="40" viewBox="0 0 162 40" fill="none" xmlns="http://www.w3.org/2000/svg">
<g clip-path="url(#clip0)">
<path d="M30.76 4.6L17.28 13.08L4.24 18.12C3.8 18.28 3.6 18.6 3.68 19.08C4.12 22.36 6.72 24.28 10.36 24.28C12.16 24.28 14.68 23.72 17.12 23V37C17.12 37.52 17.4 37.8 17.92 37.8H25.96C26.48 37.8 26.76 37.52 26.76 37V18.84C30.04 17 33.44 14.68 36.2 12.16C36.56 11.8 36.6 11.44 36.32 11.04L31.84 4.84C31.56 4.44 31.16 4.32 30.76 4.6ZM66.6 9C63.96 9 61.56 9.2 59.44 9.56L59.56 8.92L59.92 7.2C60.04 6.68 59.8 6.32 59.24 6.32H50.72C50.24 6.32 49.92 6.56 49.84 7.04L46.4 23.76C46.28 24.24 46.52 24.6 47 24.72C50.52 25.48 53.68 24.68 55.8 21.64C56.52 20.6 57.12 19.04 57.64 17.28H65.6L65.64 22.04L64.12 24.16L60.28 20.84C59.92 20.52 59.52 20.52 59.16 20.84L55.04 24.4C54.68 24.72 54.6 25.08 54.84 25.52C55.84 27.28 57.56 29.44 59.6 30.12C59.64 30.12 59.68 30.16 59.72 30.16L55.2 36.4C54.92 36.8 54.92 37.2 55.28 37.52C56.6 38.76 57.92 39.24 59 39.24C61.76 39.24 63.92 38.28 66.6 36.16C71.24 32.4 76.12 24.96 76.12 18.4C76.12 13.4 74.48 9 66.6 9ZM104.44 7.24V25.96L100.08 37.64C99.92 38.08 100 38.48 100.48 38.72C101.88 39.4 103.16 39.64 103.8 39.64C111.24 39.64 114.92 32.72 114.92 20.56C114.92 15 114.56 10.64 113.8 7.12C113.68 6.68 113.4 6.44 112.92 6.44H105.24C104.72 6.44 104.44 6.72 104.44 7.24ZM95.36 7.4H87.6C87.08 7.4 86.8 7.68 86.8 8.2V27.8C86.8 28.32 87.08 28.6 87.6 28.6H95.36C95.88 28.6 96.16 28.32 96.16 27.8V8.2C96.16 7.68 95.88 7.4 95.36 7.4ZM148.52 20.64C156.12 20.24 158.4 15.8 158.4 12.44C158.4 9.6 156.84 6.76 147.56 6.76H126.52C126 6.76 125.72 7.04 125.72 7.56V14.88C125.72 15.4 126 15.68 126.52 15.68H147.68V19.88C147.68 20.4 147.96 20.68 148.52 20.64ZM136.96 21.4L133.28 38.28C133.16 38.8 133.4 39.12 133.96 39.2C137.96 39.72 141.16 38.96 143.2 36.4C144.88 34.32 145.88 32.28 147.52 21.6C147.64 21 147.32 20.68 146.8 20.68H137.84C137.36 20.68 137.04 20.96 136.96 21.4Z" fill="#520B04"/>
</g>
<defs>
<clipPath id="clip0">
<rect width="162" height="40" fill="white"/>
</clipPath>
</defs>
</svg>
