<svg width="162" height="40" viewBox="0 0 162 40" fill="none" xmlns="http://www.w3.org/2000/svg">
<g clip-path="url(#clip0)">
<path d="M77.94 3.56H65.98V2.52C65.98 2 65.7 1.72 65.18 1.72H57.38C56.86 1.72 56.58 2 56.58 2.52V3.56H44.66C44.14 3.56 43.86 3.84 43.86 4.36V9.68C43.86 10.2 44.14 10.48 44.66 10.48H56.58V12.16C54.66 12.36 53.06 12.64 51.94 12.96V12.32C51.94 11.92 51.66 11.72 51.14 11.72H44.78C44.26 11.72 43.98 12 43.98 12.52V38.24C43.98 38.76 44.26 39.04 44.78 39.04H51.14C51.66 39.04 51.94 38.76 51.94 38.24V18.72H70.66V32.96H68.9V31.12C68.9 30.6 68.62 30.32 68.1 30.32H64.7V29.04H68.46C68.98 29.04 69.26 28.76 69.26 28.24V24.64C69.26 24.12 68.98 23.84 68.46 23.84H66.7C67.26 23.4 67.78 22.8 68.26 22.08C68.54 21.64 68.42 21.24 67.94 21L64.54 19.4C64.06 19.16 63.7 19.36 63.46 19.8L61.46 23.84H58.5L60.58 22.44C61.02 22.16 61.1 21.72 60.74 21.32C59.7 20.2 58.58 19.48 57.38 19.48C56.5 19.48 55.62 19.88 54.78 20.44C54.34 20.76 54.3 21.2 54.66 21.6L56.62 23.84H53.9C53.38 23.84 53.1 24.12 53.1 24.64V28.24C53.1 28.76 53.38 29.04 53.9 29.04H57.66V30.32H54.22C53.7 30.32 53.42 30.6 53.42 31.12V34.8C53.42 35.32 53.7 35.6 54.22 35.6H57.66V38.2C57.66 38.72 57.94 39 58.46 39H63.9C64.42 39 64.7 38.72 64.7 38.2V35.6H65.94C66.42 37.68 67.82 39.44 71.46 39.44C74.54 39.44 78.62 37.44 78.62 31.76V19.96C78.62 13.04 76.62 11.64 69.7 11.64C68.46 11.64 67.22 11.64 65.98 11.68V10.48H77.94C78.46 10.48 78.74 10.2 78.74 9.68V4.36C78.74 3.84 78.46 3.56 77.94 3.56ZM119.7 9.4V4.2C119.7 3.68 119.42 3.4 118.9 3.4H96.82C96.3 3.4 96.02 3.68 96.02 4.2V8.92H94.62V4.4C94.62 3.88 94.34 3.6 93.82 3.6H87.86C87.34 3.6 87.06 3.88 87.06 4.4V8.92H84.86C84.34 8.92 84.06 9.2 84.06 9.72V15.76C84.06 16.28 84.34 16.56 84.86 16.56H86.94L84.06 30.4C83.98 30.88 84.14 31.28 84.62 31.4C85.42 31.6 86.14 31.64 86.82 31.44L86.38 38.16C86.34 38.72 86.66 39 87.18 39H93.46C93.98 39 94.22 38.76 94.22 38.2L93.78 23.44L94.34 23.4L94.58 27.6C94.62 28.2 95.02 28.48 95.54 28.16L97.66 26.92V29.92C97.66 30.44 97.94 30.72 98.46 30.72H100.82C101.34 30.72 101.62 30.48 101.62 30.12H102.66V30.4C102.66 30.56 102.94 30.72 103.46 30.72H104.14C104.34 31.48 104.66 32.12 105.1 32.6H96.82C96.3 32.6 96.02 32.88 96.02 33.4V38.2C96.02 38.72 96.3 39 96.82 39H118.9C119.42 39 119.7 38.72 119.7 38.2V33.4C119.7 32.88 119.42 32.6 118.9 32.6H110.82C111.26 32.24 111.62 31.72 111.86 31C112.38 31.28 113.06 31.44 113.82 31.44C114.7 31.44 115.42 31.04 116.1 30.2C116.46 30.48 116.86 30.8 117.3 31.04C117.78 31.32 118.18 31.16 118.34 30.6L119.3 27.2C119.42 26.76 119.3 26.44 118.94 26.12L118.26 25.56C118.78 23.36 118.86 20.48 118.86 16.08C118.86 12.8 118.3 11.6 115.62 11.6C115.26 11.6 113.74 11.64 112.54 11.84C112.06 11.92 111.82 12.2 111.82 12.68V14.12C111.26 12.76 110.06 12.12 107.94 12.12H107.22C107.86 11.6 108.54 10.96 109.22 10.2H118.9C119.42 10.2 119.7 9.92 119.7 9.4ZM95.82 18.36C95.22 17.84 94.74 17.6 93.9 17.64V16.56H96.46C96.98 16.56 97.26 16.28 97.26 15.76V10.2H101.14L99.5 11.92C99.18 12.28 99.1 12.72 99.46 13.04C100.14 13.68 101.02 14 101.94 14.08V14.92C101.54 15 101.14 15.16 100.82 15.32V14.92C100.82 14.68 100.54 14.52 100.02 14.52H98.46C97.94 14.52 97.66 14.8 97.66 15.32V22.8C97.26 20.68 96.62 19.12 95.82 18.36ZM106.62 27.88V18.52C106.62 17.8 106.54 17.2 106.38 16.72H107.5V27.88H106.62ZM112.46 21.8C112.38 22.12 112.3 22.44 112.26 22.76V17.72H114.26V22.12L113.54 21.48C113.06 21.08 112.62 21.24 112.46 21.8ZM101.62 19H102.66V25.8H101.62V19ZM112.26 28V24.08C112.3 24.56 112.42 25 112.58 25.48C112.7 25.88 112.94 26.32 113.26 26.84L112.26 28Z" fill="#520B04"/>
</g>
<defs>
<clipPath id="clip0">
<rect width="162" height="40" fill="white"/>
</clipPath>
</defs>
</svg>
