<svg width="162" height="40" viewBox="0 0 162 40" fill="none" xmlns="http://www.w3.org/2000/svg">
<g clip-path="url(#clip0)">
<path d="M59.1 9C56.46 9 54.06 9.2 51.94 9.56L52.06 8.92L52.42 7.2C52.54 6.68 52.3 6.32 51.74 6.32H43.22C42.74 6.32 42.42 6.56 42.34 7.04L38.9 23.76C38.78 24.24 39.02 24.6 39.5 24.72C43.02 25.48 46.18 24.68 48.3 21.64C49.02 20.6 49.62 19.04 50.14 17.28H58.1L58.14 22.04L56.62 24.16L52.78 20.84C52.42 20.52 52.02 20.52 51.66 20.84L47.54 24.4C47.18 24.72 47.1 25.08 47.34 25.52C48.34 27.28 50.06 29.44 52.1 30.12C52.14 30.12 52.18 30.16 52.22 30.16L47.7 36.4C47.42 36.8 47.42 37.2 47.78 37.52C49.1 38.76 50.42 39.24 51.5 39.24C54.26 39.24 56.42 38.28 59.1 36.16C63.74 32.4 68.62 24.96 68.62 18.4C68.62 13.4 66.98 9 59.1 9ZM104.06 4.6L90.58 13.08L77.54 18.12C77.1 18.28 76.9 18.6 76.98 19.08C77.42 22.36 80.02 24.28 83.66 24.28C85.46 24.28 87.98 23.72 90.42 23V37C90.42 37.52 90.7 37.8 91.22 37.8H99.26C99.78 37.8 100.06 37.52 100.06 37V18.84C103.34 17 106.74 14.68 109.5 12.16C109.86 11.8 109.9 11.44 109.62 11.04L105.14 4.84C104.86 4.44 104.46 4.32 104.06 4.6Z" fill="#520B04"/>
</g>
<defs>
<clipPath id="clip0">
<rect width="162" height="40" fill="white"/>
</clipPath>
</defs>
</svg>
