<svg width="162" height="40" viewBox="0 0 162 40" fill="none" xmlns="http://www.w3.org/2000/svg">
<g clip-path="url(#clip0)">
<path d="M23.08 10.28C23.96 11.04 25.24 11.64 26.28 11.64C27.44 11.64 28.44 10.96 29.16 9.6C29.36 9.12 29.24 8.76 28.8 8.48L25.52 6.56C25.08 6.32 24.72 6.4 24.44 6.84L22.96 9.16C22.72 9.56 22.68 9.96 23.08 10.28ZM15 10.72L1.72 27.64C1.44 28.04 1.44 28.4 1.76 28.76C3.52 30.76 5.68 31.72 8 31.72C11.68 31.72 15.24 27.2 17.44 23.08L33.28 33.2C33.72 33.48 34.12 33.4 34.4 32.96L38.76 25.84C39.04 25.4 38.92 25 38.48 24.72L16.12 10.52C15.72 10.24 15.32 10.32 15 10.72ZM29.96 14.32C30.84 15.08 32.16 15.68 33.2 15.68C34.36 15.68 35.32 15 36.04 13.6C36.24 13.16 36.12 12.8 35.68 12.52L32.44 10.6C32 10.36 31.6 10.48 31.32 10.88L29.84 13.2C29.6 13.6 29.6 14 29.96 14.32ZM60.84 4.76H52.44C51.92 4.76 51.64 5.04 51.64 5.56V37.72C51.64 38.24 51.92 38.52 52.44 38.52H60.84C61.36 38.52 61.64 38.24 61.64 37.72V25.32C63.64 27.32 67.76 28.48 71.12 28.36C71.56 28.36 71.84 28.16 72 27.72L74.92 20.44C75.12 19.92 74.88 19.56 74.36 19.44L61.64 16.92V5.56C61.64 5.04 61.36 4.76 60.84 4.76ZM110.28 12.64C110.4 10 110.52 7.44 110.6 5C110.6 4.52 110.32 4.24 109.8 4.24H101.48C101 4.24 100.68 4.52 100.64 5L99.92 12.64H86.4C85.88 12.64 85.6 12.92 85.6 13.44V20.64C85.6 21.16 85.88 21.44 86.4 21.44H99.08L92.8 36.44C92.6 36.92 92.72 37.28 93.2 37.48C94.28 37.92 95.2 38.2 96.72 38.4C103.08 39.2 106.52 30.52 108.96 21.44H115.88C116.4 21.44 116.68 21.16 116.68 20.64V13.44C116.68 12.92 116.4 12.64 115.88 12.64H110.28ZM143.8 19.84C144.52 22.8 145.28 25.4 146 27.72L136.36 28.6C138.48 27.04 140 24.64 141.08 22.04C142.84 17.76 144.68 11.64 145.48 8.36C145.6 7.88 145.32 7.56 144.84 7.44L136.68 5.76C136.2 5.64 135.84 5.84 135.68 6.32L128.44 29.32L125.92 29.56C125.4 29.6 125.16 29.92 125.28 30.48L126.96 37.72C127.08 38.2 127.36 38.4 127.88 38.36C131.32 38.04 134.72 37.84 139.52 37.16C143.76 36.6 146.68 34.6 146.84 30.04C147.08 30.72 147.32 31.32 147.56 31.92C149.92 37.6 153.32 37.68 158.12 36.32C158.64 36.16 158.8 35.8 158.64 35.32L151.84 16.96C151.68 16.48 151.32 16.28 150.8 16.48L144.36 18.84C143.92 19 143.68 19.32 143.8 19.84Z" fill="#520B04"/>
</g>
<defs>
<clipPath id="clip0">
<rect width="162" height="40" fill="white"/>
</clipPath>
</defs>
</svg>
