<svg width="162" height="40" viewBox="0 0 162 40" fill="none" xmlns="http://www.w3.org/2000/svg">
<g clip-path="url(#clip0)">
<path d="M31.4 11.72L31.24 6.72C31.24 6.24 30.88 5.92 30.4 5.92H22.48C21.96 5.92 21.72 6.16 21.72 6.72L21.88 11.72H6.92C6.4 11.72 6.12 12 6.12 12.52V19.4C6.12 19.92 6.4 20.2 6.92 20.2H22.2L22.4 25.56L15.16 22.28C14.72 22.08 14.36 22.2 14.08 22.56L5.6 33.92C5.32 34.32 5.32 34.72 5.68 35.08C7.92 37.32 10.52 38.16 12.8 37.28C15.32 36.28 20.52 29.68 22.4 26.08L22.76 36.56C22.76 37.04 23.12 37.36 23.6 37.36H31.52C32.04 37.36 32.28 37.12 32.28 36.56L31.72 20.2H35.36C35.88 20.2 36.16 19.92 36.16 19.4V12.52C36.16 12 35.88 11.72 35.36 11.72H31.4ZM49.32 13.36H72C72.52 13.36 72.8 13.08 72.8 12.56V6.48C72.8 5.96 72.52 5.68 72 5.68H49.32C48.8 5.68 48.52 5.96 48.52 6.48V12.56C48.52 13.08 48.8 13.36 49.32 13.36ZM48 24.48L64.84 24.44V26.8L56.12 34.64C55.76 34.96 55.68 35.32 55.92 35.76C57.36 38 58.84 39.04 61.68 39.04C66.92 39.04 75.28 31.48 75.28 24.36C75.28 19.36 73.64 16.16 63.36 16.16C57.48 16.16 53.64 16.32 47.96 17.04C47.44 17.08 47.2 17.4 47.2 17.88V23.68C47.2 24.2 47.48 24.48 48 24.48ZM87.52 18.36C88.96 18.52 91.12 18.68 94.72 18.68C100.6 18.68 104.72 17.6 104.96 10.32C104.96 9.76 104.68 9.48 104.16 9.48L87.6 9.08C87.08 9.08 86.8 9.36 86.8 9.88V17.48C86.8 17.96 87.04 18.28 87.52 18.36ZM92.12 38.48C109 33.04 113.84 28.28 115.84 25.96C118.48 22.96 118.72 18.72 115.28 15.28C114.92 14.92 114.48 14.92 114.12 15.2L103.24 23.8L88.48 29.4C88 29.6 87.84 29.92 88.04 30.44L91.08 38C91.28 38.44 91.64 38.64 92.12 38.48ZM148.96 7.48C150.08 7.28 150.92 6.56 151.4 5.24C151.6 4.6 151.44 4.16 150.96 3.96L147.36 2.6C146.88 2.44 146.52 2.6 146.32 3.04L145.28 5.56C145.12 6 145.16 6.4 145.6 6.64C146.6 7.28 147.96 7.64 148.96 7.48ZM153.04 9.48C154.04 10.12 155.44 10.48 156.48 10.32C157.6 10.16 158.44 9.32 158.92 7.8C159.04 7.32 158.84 6.96 158.4 6.8L154.88 5.44C154.4 5.24 154.04 5.44 153.84 5.88L152.72 8.4C152.52 8.84 152.6 9.24 153.04 9.48ZM147.4 9C144.76 9 142.36 9.2 140.24 9.56L140.36 8.92L140.72 7.2C140.84 6.68 140.6 6.32 140.04 6.32H131.52C131.04 6.32 130.72 6.56 130.64 7.04L127.2 23.76C127.08 24.24 127.32 24.6 127.8 24.72C131.32 25.48 134.48 24.68 136.6 21.64C137.32 20.6 137.92 19.04 138.44 17.28H146.4L146.44 22.04L144.92 24.16L141.08 20.84C140.72 20.52 140.32 20.52 139.96 20.84L135.84 24.4C135.48 24.72 135.4 25.08 135.64 25.52C136.64 27.28 138.36 29.44 140.4 30.12C140.44 30.12 140.48 30.16 140.52 30.16L136 36.4C135.72 36.8 135.72 37.2 136.08 37.52C137.4 38.76 138.72 39.24 139.8 39.24C142.56 39.24 144.72 38.28 147.4 36.16C152.04 32.4 156.92 24.96 156.92 18.4C156.92 13.4 155.28 9 147.4 9Z" fill="#520B04"/>
</g>
<defs>
<clipPath id="clip0">
<rect width="162" height="40" fill="white"/>
</clipPath>
</defs>
</svg>
