<svg width="162" height="40" viewBox="0 0 162 40" fill="none" xmlns="http://www.w3.org/2000/svg">
<g clip-path="url(#clip0)">
<path d="M69.94 3.56H57.98V2.52C57.98 2 57.7 1.72 57.18 1.72H49.38C48.86 1.72 48.58 2 48.58 2.52V3.56H36.66C36.14 3.56 35.86 3.84 35.86 4.36V9.68C35.86 10.2 36.14 10.48 36.66 10.48H48.58V12.16C46.66 12.36 45.06 12.64 43.94 12.96V12.32C43.94 11.92 43.66 11.72 43.14 11.72H36.78C36.26 11.72 35.98 12 35.98 12.52V38.24C35.98 38.76 36.26 39.04 36.78 39.04H43.14C43.66 39.04 43.94 38.76 43.94 38.24V18.72H62.66V32.96H60.9V31.12C60.9 30.6 60.62 30.32 60.1 30.32H56.7V29.04H60.46C60.98 29.04 61.26 28.76 61.26 28.24V24.64C61.26 24.12 60.98 23.84 60.46 23.84H58.7C59.26 23.4 59.78 22.8 60.26 22.08C60.54 21.64 60.42 21.24 59.94 21L56.54 19.4C56.06 19.16 55.7 19.36 55.46 19.8L53.46 23.84H50.5L52.58 22.44C53.02 22.16 53.1 21.72 52.74 21.32C51.7 20.2 50.58 19.48 49.38 19.48C48.5 19.48 47.62 19.88 46.78 20.44C46.34 20.76 46.3 21.2 46.66 21.6L48.62 23.84H45.9C45.38 23.84 45.1 24.12 45.1 24.64V28.24C45.1 28.76 45.38 29.04 45.9 29.04H49.66V30.32H46.22C45.7 30.32 45.42 30.6 45.42 31.12V34.8C45.42 35.32 45.7 35.6 46.22 35.6H49.66V38.2C49.66 38.72 49.94 39 50.46 39H55.9C56.42 39 56.7 38.72 56.7 38.2V35.6H57.94C58.42 37.68 59.82 39.44 63.46 39.44C66.54 39.44 70.62 37.44 70.62 31.76V19.96C70.62 13.04 68.62 11.64 61.7 11.64C60.46 11.64 59.22 11.64 57.98 11.68V10.48H69.94C70.46 10.48 70.74 10.2 70.74 9.68V4.36C70.74 3.84 70.46 3.56 69.94 3.56ZM111.7 9.4V4.2C111.7 3.68 111.42 3.4 110.9 3.4H88.82C88.3 3.4 88.02 3.68 88.02 4.2V8.92H86.62V4.4C86.62 3.88 86.34 3.6 85.82 3.6H79.86C79.34 3.6 79.06 3.88 79.06 4.4V8.92H76.86C76.34 8.92 76.06 9.2 76.06 9.72V15.76C76.06 16.28 76.34 16.56 76.86 16.56H78.94L76.06 30.4C75.98 30.88 76.14 31.28 76.62 31.4C77.42 31.6 78.14 31.64 78.82 31.44L78.38 38.16C78.34 38.72 78.66 39 79.18 39H85.46C85.98 39 86.22 38.76 86.22 38.2L85.78 23.44L86.34 23.4L86.58 27.6C86.62 28.2 87.02 28.48 87.54 28.16L89.66 26.92V29.92C89.66 30.44 89.94 30.72 90.46 30.72H92.82C93.34 30.72 93.62 30.48 93.62 30.12H94.66V30.4C94.66 30.56 94.94 30.72 95.46 30.72H96.14C96.34 31.48 96.66 32.12 97.1 32.6H88.82C88.3 32.6 88.02 32.88 88.02 33.4V38.2C88.02 38.72 88.3 39 88.82 39H110.9C111.42 39 111.7 38.72 111.7 38.2V33.4C111.7 32.88 111.42 32.6 110.9 32.6H102.82C103.26 32.24 103.62 31.72 103.86 31C104.38 31.28 105.06 31.44 105.82 31.44C106.7 31.44 107.42 31.04 108.1 30.2C108.46 30.48 108.86 30.8 109.3 31.04C109.78 31.32 110.18 31.16 110.34 30.6L111.3 27.2C111.42 26.76 111.3 26.44 110.94 26.12L110.26 25.56C110.78 23.36 110.86 20.48 110.86 16.08C110.86 12.8 110.3 11.6 107.62 11.6C107.26 11.6 105.74 11.64 104.54 11.84C104.06 11.92 103.82 12.2 103.82 12.68V14.12C103.26 12.76 102.06 12.12 99.94 12.12H99.22C99.86 11.6 100.54 10.96 101.22 10.2H110.9C111.42 10.2 111.7 9.92 111.7 9.4ZM87.82 18.36C87.22 17.84 86.74 17.6 85.9 17.64V16.56H88.46C88.98 16.56 89.26 16.28 89.26 15.76V10.2H93.14L91.5 11.92C91.18 12.28 91.1 12.72 91.46 13.04C92.14 13.68 93.02 14 93.94 14.08V14.92C93.54 15 93.14 15.16 92.82 15.32V14.92C92.82 14.68 92.54 14.52 92.02 14.52H90.46C89.94 14.52 89.66 14.8 89.66 15.32V22.8C89.26 20.68 88.62 19.12 87.82 18.36ZM98.62 27.88V18.52C98.62 17.8 98.54 17.2 98.38 16.72H99.5V27.88H98.62ZM104.46 21.8C104.38 22.12 104.3 22.44 104.26 22.76V17.72H106.26V22.12L105.54 21.48C105.06 21.08 104.62 21.24 104.46 21.8ZM93.62 19H94.66V25.8H93.62V19ZM104.26 28V24.08C104.3 24.56 104.42 25 104.58 25.48C104.7 25.88 104.94 26.32 105.26 26.84L104.26 28Z" fill="#520B04"/>
</g>
<defs>
<clipPath id="clip0">
<rect width="162" height="40" fill="white"/>
</clipPath>
</defs>
</svg>
