<svg width="29" height="25" viewBox="0 0 29 25" fill="none" xmlns="http://www.w3.org/2000/svg">
<path d="M28.4004 5.05859C28.834 5.49219 28.834 5.92578 28.4004 6.35938L10.334 24.4258C10.1413 24.6185 9.92448 24.7148 9.68359 24.7148V24.6426L9.61133 24.7148C9.41862 24.7148 9.22591 24.6185 9.0332 24.4258L0.289062 15.6816C0.096353 15.4889 0 15.2721 0 15.0312C0 14.7904 0.096353 14.5736 0.289062 14.3809L5.05859 9.61133C5.44401 9.22591 5.85351 9.22591 6.28711 9.61133L9.68359 13.0078L22.4023 0.289062C22.5951 0.096353 22.7878 0 22.9805 0C23.2214 0 23.4382 0.096353 23.6309 0.289062L28.4004 5.05859Z" fill="#7B130A"/>
</svg>
