<svg width="32" height="32" viewBox="0 0 32 32" fill="none" xmlns="http://www.w3.org/2000/svg">
<path d="M19.4286 12.2857V17.3571C19.4286 17.5 19.3571 17.5714 19.2143 17.5714H18.4286C18.3333 17.5714 18.2619 17.5476 18.2143 17.5L15.8571 14.3571V17.3571C15.8571 17.5476 15.7857 17.6429 15.6429 17.6429H14.8571C14.6667 17.6429 14.5714 17.5476 14.5714 17.3571V12.2857C14.5714 12.1429 14.6667 12.0714 14.8571 12.0714H15.6429C15.7381 12.0714 15.8095 12.0952 15.8571 12.1429L18.1429 15.2857V12.2857C18.1429 12.1429 18.2143 12.0714 18.3571 12.0714H19.2143C19.3571 12.0714 19.4286 12.1429 19.4286 12.2857ZM13.5714 12.0714C13.7143 12.0714 13.7857 12.1429 13.7857 12.2857V17.3571C13.7857 17.5 13.7143 17.5714 13.5714 17.5714H12.7857C12.6429 17.5714 12.5714 17.5 12.5714 17.3571V12.2857C12.5714 12.1429 12.6429 12.0714 12.7857 12.0714H13.5714ZM11.6429 16.3571C11.7857 16.3571 11.8571 16.4286 11.8571 16.5714V17.3571C11.8571 17.5 11.7619 17.5714 11.5714 17.5714H8.35714C8.30952 17.5714 8.2619 17.5595 8.21429 17.5357C8.16667 17.5119 8.14286 17.4524 8.14286 17.3571V12.2857C8.14286 12.1429 8.21428 12.0714 8.35714 12.0714H9.14286C9.33333 12.0714 9.42857 12.1429 9.42857 12.2857V16.3571H11.6429ZM23.7143 12.0714C23.8571 12.0714 23.9286 12.1429 23.9286 12.2857V13.1429C23.9286 13.2857 23.8571 13.3571 23.7143 13.3571H21.5V14.2143H23.7143C23.8571 14.2143 23.9286 14.2857 23.9286 14.4286V15.2857C23.9286 15.4286 23.8571 15.5 23.7143 15.5H21.5V16.3571H23.7143C23.8571 16.3571 23.9286 16.4286 23.9286 16.5714V17.3571C23.9286 17.5 23.8571 17.5714 23.7143 17.5714H20.4286C20.2857 17.5714 20.2143 17.5 20.2143 17.3571V12.2857C20.2143 12.1429 20.2857 12.0714 20.4286 12.0714H23.7143ZM32 5.85714V26.2143C32 27.8333 31.4286 29.2024 30.2857 30.3214C29.1429 31.4405 27.7619 32 26.1429 32H5.78571C4.16666 32 2.79762 31.4286 1.67857 30.2857C0.559518 29.1429 0 27.7619 0 26.1429V5.78571C0 4.16666 0.571423 2.79762 1.71429 1.67857C2.85715 0.559518 4.23809 0 5.85714 0H26.2143C27.8333 0 29.2024 0.571423 30.3214 1.71429C31.4405 2.85715 32 4.23809 32 5.85714ZM27.5714 14.5714C27.5714 12 26.4405 9.78572 24.1786 7.92857C21.9167 6.07142 19.1786 5.14286 15.9643 5.14286C12.75 5.14286 10 6.07142 7.71429 7.92857C5.42856 9.78572 4.28571 12 4.28571 14.5714C4.28571 16.9048 5.21428 18.9524 7.07143 20.7143C8.92858 22.4762 11.2619 23.5476 14.0714 23.9286C14.6905 24.0714 15.0357 24.3214 15.1071 24.6786C15.1786 25.0357 15.119 25.6667 14.9286 26.5714C14.9286 26.7143 14.9286 26.8095 14.9286 26.8571C14.9286 26.9048 14.9405 27.0119 14.9643 27.1786C14.9881 27.3452 15.0833 27.4048 15.25 27.3571C15.4167 27.3095 15.6429 27.2381 15.9286 27.1429C16.4048 26.9524 17.1905 26.5238 18.2857 25.8571C19.381 25.1905 20.6071 24.3333 21.9643 23.2857C23.3214 22.2381 24.3809 21.2857 25.1429 20.4286C26.7619 18.5714 27.5714 16.6191 27.5714 14.5714Z" fill="white"/>
</svg>
