<svg width="319" height="32" viewBox="0 0 319 32" fill="none" xmlns="http://www.w3.org/2000/svg">
<path d="M15.3321 11.4H22.9801C23.3961 11.4 23.6201 11.176 23.6201 10.76V6.72798C23.6201 6.31198 23.3961 6.08798 22.9801 6.08798H15.3321V4.00798C15.3321 3.59198 15.1081 3.36798 14.6921 3.36798H9.50809C9.09209 3.36798 8.86809 3.59198 8.86809 4.00798V6.08798H2.85209C2.43609 6.08798 2.21209 6.31198 2.21209 6.72798V10.76C2.21209 11.176 2.43609 11.4 2.85209 11.4H8.86809V13.256C1.98809 15.176 -1.40391 21.192 1.12409 28.616C1.25209 28.968 1.50809 29.128 1.89209 29.064L12.8361 27.336C13.2201 27.272 13.4121 27.016 13.4121 26.632V24.936C14.8201 25.384 16.5481 25.384 18.5641 24.84L16.8041 29.544C16.6441 29.992 16.8361 30.28 17.2841 30.312C22.1481 30.6 26.2441 27.752 26.2441 22.28C26.2441 16.904 22.7241 13.128 15.3321 12.648V11.4ZM15.3321 17.992H18.7881V22.568L15.3321 18.536V17.992ZM8.90009 18.856C9.02809 20.168 9.41209 21.384 10.0521 22.376L6.82009 23.016C6.82009 20.904 7.68409 19.624 8.90009 18.856ZM45.7641 13.032V8.58398C45.7641 8.16798 45.5401 7.94398 45.1241 7.94398H42.6281L43.3001 3.87998C43.3641 3.46398 43.1401 3.17598 42.7241 3.17598H37.0921C36.7081 3.17598 36.4841 3.36798 36.4201 3.75198L35.6201 7.94398H31.9721C31.5561 7.94398 31.3321 8.16798 31.3321 8.58398V13.032C31.3321 13.448 31.5561 13.672 31.9721 13.672H34.5321L32.2281 24.008C32.1321 24.392 32.3241 24.712 32.7401 24.776C37.0601 25.672 39.5881 24.072 40.7081 18.472L41.6681 13.672H45.1241C45.5401 13.672 45.7641 13.448 45.7641 13.032ZM47.4281 8.03998C48.7721 9.70398 50.0521 10.984 52.1641 12.328C54.6921 13.928 57.6681 13.768 59.7481 11.784C60.0681 11.464 60.0361 11.144 59.7481 10.856L52.5161 4.00798C52.2281 3.75198 51.9081 3.71998 51.6201 3.94398L47.5561 7.14398C47.2361 7.39998 47.1721 7.68798 47.4281 8.03998ZM54.7241 14.76H50.0201C49.6041 14.76 49.3801 14.984 49.3801 15.4V18.376C44.7721 16.744 40.4841 20.36 40.4841 24.296C40.4841 28.232 43.3961 30.44 47.8441 30.44C50.2121 30.44 52.5161 30.152 54.8521 29.352C55.2041 29.224 55.3641 28.968 55.3641 28.616V26.888C56.6441 26.792 57.9241 26.344 58.9161 25.768C59.3321 25.544 59.3321 25.16 58.9801 24.872L55.3641 21.672V15.4C55.3641 14.984 55.1401 14.76 54.7241 14.76ZM46.5001 25.736V22.344H49.3801V25.736H46.5001ZM75.4281 7.55998L75.3321 4.07198C75.3321 3.68798 75.0761 3.43198 74.6921 3.43198H68.5481C68.1641 3.43198 67.9401 3.65598 67.9081 4.03998L67.6841 7.55998H64.7081C64.2921 7.55998 64.0681 7.78398 64.0681 8.19998V13.608C64.0681 14.024 64.2921 14.248 64.7081 14.248H67.5561L65.9881 27.816C65.9561 28.2 66.1161 28.488 66.5321 28.552C70.5641 29.32 72.5801 28.2 73.8921 21.96C74.3401 19.688 74.6601 17 74.8841 14.248H76.9001C77.3161 14.248 77.5401 14.024 77.5401 13.608V8.19998C77.5401 7.78398 77.3161 7.55998 76.9001 7.55998H75.4281ZM79.3641 9.99198V15.208C79.3641 15.624 79.5881 15.848 80.0041 15.848H89.6681C90.0841 15.848 90.3081 15.624 90.3081 15.208V9.99198C90.3081 9.57598 90.0841 9.35198 89.6681 9.35198H80.0041C79.5881 9.35198 79.3641 9.57598 79.3641 9.99198ZM84.2601 21.704L78.0841 21.416C77.6681 21.384 77.4441 21.608 77.4121 22.024L77.1561 27.176C77.1241 27.528 77.2841 27.816 77.6041 27.944C79.9081 28.776 84.6121 28.936 87.4601 28.136C90.6601 27.24 90.9481 25 90.5321 21.992C90.4681 21.576 90.2121 21.384 89.8281 21.416L84.2601 21.704ZM115.492 20.072L113.668 27.752C113.572 28.168 113.732 28.456 114.148 28.52C119.844 29.288 123.492 24.392 123.492 17.288C123.492 10.888 118.98 5.70398 110.276 5.70398C98.5321 5.70398 92.7721 17.8 99.4281 26.472C99.6201 26.76 99.8441 26.856 100.196 26.856C102.884 26.76 106.756 25.96 109.412 24.648C111.524 23.592 112.356 21 111.492 17.928C111.396 17.512 111.076 17.352 110.692 17.48L104.26 19.656V13.256H115.492V20.072ZM154.852 23.24L155.044 20.936H155.588C155.94 20.936 156.132 20.712 156.132 20.296V16.968C156.132 16.552 155.908 16.328 155.492 16.328H155.332C155.396 14.76 155.396 13.48 155.332 12.744C155.076 9.70398 153.028 9.03198 149.924 8.99998C147.556 8.99998 145.348 9.25598 143.684 9.60798L143.716 9.06398C144.036 8.71198 144.292 8.29598 144.516 7.84798H154.692C155.108 7.84798 155.332 7.62398 155.332 7.20798V3.04798C155.332 2.63198 155.108 2.40798 154.692 2.40798H145.828C145.86 2.21598 145.86 2.02398 145.892 1.83198C145.956 1.47998 145.732 1.28798 145.316 1.25598L139.364 0.871974C138.98 0.839974 138.692 1.03198 138.628 1.41598L136.932 9.89598C136.868 10.28 137.028 10.6 137.444 10.664C137.668 10.696 137.892 10.696 138.148 10.728L137.732 16.328H136.772C136.356 16.328 136.132 16.552 136.132 16.968V20.616C135.716 19.56 134.884 18.632 133.828 17.832C133.476 17.576 133.156 17.672 132.964 18.024L128.1 26.632C127.908 26.984 127.972 27.272 128.324 27.496L132.772 30.248C133.124 30.472 133.444 30.408 133.636 30.056C135.268 27.336 136.612 24.392 136.42 22.024C136.42 21.64 136.356 21.288 136.26 20.936H137.38L137.156 24.008C136.9 27.752 138.916 29.992 142.692 29.992C144.356 29.992 145.988 29.896 147.588 29.736L147.46 30.28C147.364 30.632 147.524 30.888 147.908 30.984C148.676 31.176 149.348 31.272 149.988 31.272C151.78 31.272 153.22 30.664 153.924 28.808C154.564 28.712 155.172 28.584 155.812 28.456C156.196 28.392 156.388 28.168 156.388 27.784V23.816C156.388 23.4 156.132 23.144 155.716 23.176L154.852 23.24ZM135.748 3.23998C134.852 1.99198 133.06 1.47998 131.012 1.12798C130.468 1.03198 130.148 1.15998 130.02 1.54398L128.26 6.47198C128.132 6.85598 128.26 7.17598 128.676 7.27198L135.556 8.96798C135.94 9.06398 136.26 8.90398 136.324 8.48798C136.708 6.34398 136.612 4.42398 135.748 3.23998ZM135.044 10.984C134.212 9.73598 132.516 9.22398 130.756 8.87198C130.276 8.77598 129.956 8.93598 129.828 9.31998L128.228 14.504C128.1 14.92 128.26 15.176 128.708 15.272L134.98 16.424C135.396 16.488 135.652 16.328 135.716 15.88C135.94 13.864 135.78 12.072 135.044 10.984ZM144.868 13.768L144.676 16.328H143.204L143.396 13.768H144.868ZM149.956 16.328H148.388L148.58 13.768H150.18L149.956 16.328ZM142.884 20.936H144.356L144.132 24.008L142.66 24.104L142.884 20.936ZM147.812 23.752L148.036 20.936H149.572L149.348 23.624L147.812 23.752ZM169.316 4.96798C169.444 3.52798 169.412 2.66398 169.476 1.76798C169.476 1.47998 169.252 1.31998 168.836 1.31998H163.236C162.852 1.31998 162.628 1.51198 162.564 1.89598L159.972 16.744C159.908 17.128 160.1 17.416 160.484 17.48C161.252 17.608 161.988 17.576 162.66 17.416L163.94 22.344C164.068 22.824 164.388 22.92 164.772 22.664L168.708 20.168L168.484 21.64L160.58 27.208C160.292 27.432 160.132 27.72 160.324 28.04C161.124 29.736 163.268 30.6 165.252 30.6C167.94 30.6 170.884 28.84 172.644 27.048C176.132 23.56 176.676 19.016 177.284 10.184C177.54 6.37598 175.62 4.96798 172.9 4.96798H169.316ZM185.604 12.2V1.95998C185.604 1.54398 185.38 1.31998 184.964 1.31998H179.172C178.756 1.31998 178.532 1.54398 178.532 1.95998V29.96C178.532 30.376 178.756 30.6 179.172 30.6H184.964C185.38 30.6 185.604 30.376 185.604 29.96V21.544C185.956 21.736 186.308 21.96 186.724 22.12C187.108 22.312 187.428 22.12 187.524 21.704L188.74 16.008C188.804 15.688 188.708 15.4 188.484 15.176L185.604 12.2ZM165.796 15.4C166.756 14.344 167.524 12.968 168.068 11.432H169.924L169.124 17.032C168.228 16.2 167.044 15.656 165.796 15.4ZM216.676 8.26398H220.324C220.74 8.26398 220.964 8.03998 220.964 7.62398V3.49598C220.964 3.07998 220.74 2.85598 220.324 2.85598H212.42C212.452 2.50398 212.452 2.15198 212.484 1.79998C212.484 1.38398 212.26 1.15998 211.844 1.15998H206.34C205.956 1.15998 205.7 1.38398 205.668 1.76798L204.74 12.072C204.708 12.552 204.964 12.776 205.412 12.68C208.196 12.04 210.052 10.504 211.14 8.26398H214.756L205.924 14.568C205.572 14.824 205.508 15.144 205.796 15.464C206.116 15.816 206.404 16.072 206.692 16.296V29.96C206.692 30.376 206.916 30.6 207.332 30.6H212.068C212.484 30.6 212.708 30.376 212.708 29.96V16.84C215.044 16.04 217.188 14.28 219.14 11.88C219.396 11.56 219.396 11.24 219.14 10.952L216.676 8.26398ZM200.26 12.008C200.26 11.464 200.292 10.888 200.292 10.28H203.972C204.388 10.28 204.612 10.056 204.612 9.63998V4.58398C204.612 4.16798 204.388 3.94398 203.972 3.94398H201.636V2.47198C201.636 2.05598 201.412 1.83198 200.996 1.83198H195.556C195.14 1.83198 194.916 2.05598 194.916 2.47198V3.94398H193.476C193.06 3.94398 192.836 4.16798 192.836 4.58398V9.63998C192.836 10.056 193.06 10.28 193.476 10.28H194.18L193.828 20.232L192.772 29.608C192.74 29.96 192.868 30.248 193.252 30.376C193.828 30.568 194.276 30.632 194.788 30.632C196.452 30.632 197.572 28.264 198.244 25.096C198.244 28.456 199.556 30.6 201.316 30.6C203.428 30.6 204.932 28.328 204.932 25.192V17.608C204.932 13.864 203.876 12.008 201.028 12.008H200.26ZM219.812 16.2L218.788 16.936L218.596 15.912C218.532 15.496 218.244 15.304 217.828 15.432C215.492 16.072 214.116 17.608 213.892 19.528C213.636 21.512 213.796 25.768 214.5 29.736C214.596 30.152 214.852 30.344 215.268 30.248L220.452 29.256C220.868 29.16 221.028 28.904 220.964 28.488L219.588 21.256C220.036 21.16 220.452 21.032 220.836 20.84C221.156 20.648 221.252 20.424 221.188 20.04L220.612 16.552C220.548 16.072 220.196 15.912 219.812 16.2ZM198.436 23.912C198.692 22.344 198.852 20.648 198.884 18.984C198.884 18.76 198.884 18.568 198.916 18.344H200.004V23.912H198.436ZM228.708 2.40798L225.028 11.24C224.868 11.656 224.996 11.944 225.412 12.072C226.276 12.296 227.172 12.392 228.036 12.328L225.028 19.56C224.868 19.976 224.996 20.264 225.412 20.392C225.988 20.552 226.596 20.616 227.204 20.648L226.5 29.928C226.468 30.376 226.692 30.6 227.108 30.6H233.028C233.412 30.6 233.668 30.376 233.7 29.992L234.5 19.72C234.532 19.272 234.308 19.048 233.892 19.048H232.292C233.956 17.544 234.916 14.76 235.428 11.944C235.524 11.528 235.3 11.272 234.916 11.208L232.26 10.76C233.956 9.25598 234.916 6.43998 235.428 3.62398C235.524 3.20798 235.3 2.95198 234.916 2.88798L229.508 1.95998C229.156 1.89598 228.836 2.05598 228.708 2.40798ZM237.06 2.95198V8.23198C237.06 8.64798 237.284 8.87198 237.7 8.87198H251.94C252.356 8.87198 252.58 8.64798 252.58 8.23198V2.95198C252.58 2.53598 252.356 2.31198 251.94 2.31198H237.7C237.284 2.31198 237.06 2.53598 237.06 2.95198ZM236.868 10.76V16.04C236.868 16.456 237.092 16.68 237.508 16.68H244.74V24.264H242.02C241.604 24.264 241.38 24.488 241.38 24.936C241.54 29.256 243.236 30.888 246.372 30.888C249.284 30.888 251.652 29.416 251.652 25.736V16.68H252.772C253.188 16.68 253.412 16.456 253.412 16.04V10.76C253.412 10.344 253.188 10.12 252.772 10.12H237.508C237.092 10.12 236.868 10.344 236.868 10.76ZM268.26 5.19198C268.036 3.62398 266.468 1.92798 264.708 0.967975C264.356 0.775975 264.068 0.775975 263.78 0.935975L259.94 3.01598C259.492 3.27198 259.46 3.65598 259.94 3.87998L262.692 5.19198H257.988C257.572 5.19198 257.348 5.41598 257.348 5.83198V8.71198C257.348 9.12798 257.572 9.35198 257.988 9.35198H270.212C270.628 9.35198 270.852 9.12798 270.852 8.71198V5.83198C270.852 5.41598 270.628 5.19198 270.212 5.19198H268.26ZM275.492 11.048C276.868 10.184 278.084 8.26398 278.948 5.99198C279.076 7.14398 279.556 8.32798 280.42 9.60798L272.58 13.256C272.228 13.416 272.068 13.704 272.196 14.088C273.06 16.936 274.82 17.064 277.38 16.392C279.684 15.784 282.212 14.152 283.716 13.064C284.004 12.84 284.068 12.616 283.972 12.232L283.588 10.856L285.956 7.97598C286.212 7.68798 286.212 7.36798 285.956 7.07998L281.124 1.70398C280.9 1.47998 280.644 1.35198 280.324 1.35198H275.364C275.012 1.35198 274.788 1.47998 274.628 1.83198L270.628 10.152H257.988C257.572 10.152 257.348 10.376 257.348 10.792V13.672C257.348 14.088 257.572 14.312 257.988 14.312H270.212C270.628 14.312 270.852 14.088 270.852 13.672V10.824C272.356 11.784 273.988 11.976 275.492 11.048ZM270.852 18.6V15.72C270.852 15.304 270.628 15.08 270.212 15.08H257.988C257.572 15.08 257.348 15.304 257.348 15.72V18.6C257.348 19.016 257.572 19.24 257.988 19.24H270.212C270.628 19.24 270.852 19.016 270.852 18.6ZM277.38 23.08C279.78 22.44 282.34 20.776 283.844 19.656C284.036 19.496 284.068 19.272 283.972 18.92L283.076 15.848C282.948 15.4 282.628 15.272 282.244 15.464L272.58 19.944C272.228 20.104 272.068 20.392 272.196 20.776C273.06 23.624 274.82 23.752 277.38 23.08ZM267.78 19.848C266.276 19.848 264.356 20.136 263.204 20.52V20.296C263.204 20.168 262.98 20.072 262.564 20.072H258.372C257.956 20.072 257.764 20.264 257.764 20.712L257.988 29.96C257.988 30.344 258.276 30.6 258.66 30.6H262.852C263.268 30.6 263.492 30.408 263.492 30.12H270.116C270.532 30.12 270.756 29.896 270.756 29.48L270.724 22.504C270.724 20.232 269.124 19.848 267.78 19.848ZM271.62 27.432C272.676 30.664 274.692 31.016 277.764 30.248C280.58 29.512 283.556 27.496 285.316 26.216C285.636 25.992 285.7 25.768 285.604 25.384L284.484 21.608C284.356 21.16 284.036 21.032 283.652 21.224L271.972 26.6C271.62 26.76 271.46 27.048 271.62 27.432ZM263.332 24.168H265.252V26.216H263.364L263.332 24.168ZM311.332 8.29598C314.66 8.23198 316.676 7.17598 318.084 6.05598C318.244 5.92798 318.244 5.67198 318.052 5.35198L316.228 1.99198C316.068 1.67198 315.78 1.51198 315.428 1.60798L306.66 3.65598C306.276 3.75198 306.052 4.03998 306.18 4.45598C306.756 6.43998 307.748 7.68798 309.508 8.13598L307.14 8.10398C306.724 8.10398 306.5 8.32798 306.5 8.74398V19.176L306.468 19.784C305.988 18.472 305.348 17.32 304.644 16.808C304.132 16.424 303.62 16.36 303.108 16.456V15.784H305.22C305.636 15.784 305.86 15.56 305.86 15.144V11.336C305.86 10.92 305.636 10.696 305.22 10.696H303.044V10.024C303.588 10.184 304.196 10.12 304.74 9.67198C305.38 9.15998 305.988 8.07198 306.436 6.82398C306.564 6.47198 306.468 6.21598 306.212 5.95998L304.516 4.42398C304.132 4.07198 303.78 4.19998 303.652 4.67998L303.012 7.11198L302.948 2.43998C302.948 2.02398 302.724 1.79998 302.308 1.79998L299.204 1.83198C298.788 1.83198 298.564 2.05598 298.564 2.47198V4.77598C298.02 4.29598 297.38 4.16798 296.74 4.19998C296.324 4.23198 296.164 4.48798 296.196 4.90398L296.708 9.31998C296.772 9.73598 297.06 9.92798 297.476 9.79998L298.596 9.51198V10.696H296.932C296.516 10.696 296.292 10.92 296.292 11.336V15.144C296.292 15.56 296.516 15.784 296.932 15.784H297.508L296.004 22.312C295.908 22.696 296.004 22.984 296.356 23.144C297.284 23.528 298.148 23.336 298.884 22.664L298.692 24.008C298.628 24.424 298.884 24.68 299.3 24.68H302.564C302.98 24.68 303.204 24.456 303.204 24.04L303.14 19.912L303.652 21.8C303.78 22.28 304.164 22.376 304.516 22.056L306.436 20.296L305.924 30.024C305.892 30.44 306.084 30.664 306.468 30.728C308.324 31.112 309.86 30.344 310.724 27.432C311.236 25.736 311.332 22.76 311.332 19.528V16.36H312.708L312.74 29.96C312.74 30.376 312.964 30.6 313.38 30.6H317.06C317.476 30.6 317.7 30.376 317.7 29.96L317.668 16.36H317.988C318.18 16.36 318.308 16.136 318.308 15.72V11.048C318.308 10.632 318.084 10.408 317.668 10.408H311.332V8.29598ZM289.924 4.61598V29.96C289.924 30.376 290.148 30.6 290.564 30.6H295.012C295.428 30.6 295.652 30.376 295.652 29.96H304.612C305.028 29.96 305.252 29.736 305.252 29.32V25.768C305.252 25.352 305.028 25.128 304.612 25.128H295.652V4.61598C295.652 4.19998 295.428 3.97598 295.012 3.97598H290.564C290.148 3.97598 289.924 4.19998 289.924 4.61598Z" fill="#520B04"/>
</svg>
