<svg width="319" height="32" viewBox="0 0 319 32" fill="none" xmlns="http://www.w3.org/2000/svg">
<path d="M15.332 11.4H22.98C23.396 11.4 23.62 11.176 23.62 10.76V6.728C23.62 6.312 23.396 6.088 22.98 6.088H15.332V4.008C15.332 3.592 15.108 3.368 14.692 3.368H9.508C9.092 3.368 8.868 3.592 8.868 4.008V6.088H2.852C2.436 6.088 2.212 6.312 2.212 6.728V10.76C2.212 11.176 2.436 11.4 2.852 11.4H8.868V13.256C1.988 15.176 -1.404 21.192 1.124 28.616C1.252 28.968 1.508 29.128 1.892 29.064L12.836 27.336C13.22 27.272 13.412 27.016 13.412 26.632V24.936C14.82 25.384 16.548 25.384 18.564 24.84L16.804 29.544C16.644 29.992 16.836 30.28 17.284 30.312C22.148 30.6 26.244 27.752 26.244 22.28C26.244 16.904 22.724 13.128 15.332 12.648V11.4ZM15.332 17.992H18.788V22.568L15.332 18.536V17.992ZM8.9 18.856C9.028 20.168 9.412 21.384 10.052 22.376L6.82 23.016C6.82 20.904 7.684 19.624 8.9 18.856ZM45.764 13.032V8.584C45.764 8.168 45.54 7.944 45.124 7.944H42.628L43.3 3.88C43.364 3.464 43.14 3.176 42.724 3.176H37.092C36.708 3.176 36.484 3.368 36.42 3.752L35.62 7.944H31.972C31.556 7.944 31.332 8.168 31.332 8.584V13.032C31.332 13.448 31.556 13.672 31.972 13.672H34.532L32.228 24.008C32.132 24.392 32.324 24.712 32.74 24.776C37.06 25.672 39.588 24.072 40.708 18.472L41.668 13.672H45.124C45.54 13.672 45.764 13.448 45.764 13.032ZM47.428 8.04C48.772 9.704 50.052 10.984 52.164 12.328C54.692 13.928 57.668 13.768 59.748 11.784C60.068 11.464 60.036 11.144 59.748 10.856L52.516 4.008C52.228 3.752 51.908 3.72 51.62 3.944L47.556 7.144C47.236 7.4 47.172 7.688 47.428 8.04ZM54.724 14.76H50.02C49.604 14.76 49.38 14.984 49.38 15.4V18.376C44.772 16.744 40.484 20.36 40.484 24.296C40.484 28.232 43.396 30.44 47.844 30.44C50.212 30.44 52.516 30.152 54.852 29.352C55.204 29.224 55.364 28.968 55.364 28.616V26.888C56.644 26.792 57.924 26.344 58.916 25.768C59.332 25.544 59.332 25.16 58.98 24.872L55.364 21.672V15.4C55.364 14.984 55.14 14.76 54.724 14.76ZM46.5 25.736V22.344H49.38V25.736H46.5ZM75.428 7.56L75.332 4.072C75.332 3.688 75.076 3.432 74.692 3.432H68.548C68.164 3.432 67.94 3.656 67.908 4.04L67.684 7.56H64.708C64.292 7.56 64.068 7.784 64.068 8.2V13.608C64.068 14.024 64.292 14.248 64.708 14.248H67.556L65.988 27.816C65.956 28.2 66.116 28.488 66.532 28.552C70.564 29.32 72.58 28.2 73.892 21.96C74.34 19.688 74.66 17 74.884 14.248H76.9C77.316 14.248 77.54 14.024 77.54 13.608V8.2C77.54 7.784 77.316 7.56 76.9 7.56H75.428ZM79.364 9.992V15.208C79.364 15.624 79.588 15.848 80.004 15.848H89.668C90.084 15.848 90.308 15.624 90.308 15.208V9.992C90.308 9.576 90.084 9.352 89.668 9.352H80.004C79.588 9.352 79.364 9.576 79.364 9.992ZM84.26 21.704L78.084 21.416C77.668 21.384 77.444 21.608 77.412 22.024L77.156 27.176C77.124 27.528 77.284 27.816 77.604 27.944C79.908 28.776 84.612 28.936 87.46 28.136C90.66 27.24 90.948 25 90.532 21.992C90.468 21.576 90.212 21.384 89.828 21.416L84.26 21.704ZM115.492 20.072L113.668 27.752C113.572 28.168 113.732 28.456 114.148 28.52C119.844 29.288 123.492 24.392 123.492 17.288C123.492 10.888 118.98 5.704 110.276 5.704C98.532 5.704 92.772 17.8 99.428 26.472C99.62 26.76 99.844 26.856 100.196 26.856C102.884 26.76 106.756 25.96 109.412 24.648C111.524 23.592 112.356 21 111.492 17.928C111.396 17.512 111.076 17.352 110.692 17.48L104.26 19.656V13.256H115.492V20.072ZM154.852 23.24L155.044 20.936H155.588C155.94 20.936 156.132 20.712 156.132 20.296V16.968C156.132 16.552 155.908 16.328 155.492 16.328H155.332C155.396 14.76 155.396 13.48 155.332 12.744C155.076 9.704 153.028 9.032 149.924 9C147.556 9 145.348 9.256 143.684 9.608L143.716 9.064C144.036 8.712 144.292 8.296 144.516 7.848H154.692C155.108 7.848 155.332 7.624 155.332 7.208V3.048C155.332 2.632 155.108 2.408 154.692 2.408H145.828C145.86 2.216 145.86 2.024 145.892 1.832C145.956 1.48 145.732 1.288 145.316 1.256L139.364 0.871998C138.98 0.839998 138.692 1.032 138.628 1.416L136.932 9.896C136.868 10.28 137.028 10.6 137.444 10.664C137.668 10.696 137.892 10.696 138.148 10.728L137.732 16.328H136.772C136.356 16.328 136.132 16.552 136.132 16.968V20.616C135.716 19.56 134.884 18.632 133.828 17.832C133.476 17.576 133.156 17.672 132.964 18.024L128.1 26.632C127.908 26.984 127.972 27.272 128.324 27.496L132.772 30.248C133.124 30.472 133.444 30.408 133.636 30.056C135.268 27.336 136.612 24.392 136.42 22.024C136.42 21.64 136.356 21.288 136.26 20.936H137.38L137.156 24.008C136.9 27.752 138.916 29.992 142.692 29.992C144.356 29.992 145.988 29.896 147.588 29.736L147.46 30.28C147.364 30.632 147.524 30.888 147.908 30.984C148.676 31.176 149.348 31.272 149.988 31.272C151.78 31.272 153.22 30.664 153.924 28.808C154.564 28.712 155.172 28.584 155.812 28.456C156.196 28.392 156.388 28.168 156.388 27.784V23.816C156.388 23.4 156.132 23.144 155.716 23.176L154.852 23.24ZM135.748 3.24C134.852 1.992 133.06 1.48 131.012 1.128C130.468 1.032 130.148 1.16 130.02 1.544L128.26 6.472C128.132 6.856 128.26 7.176 128.676 7.272L135.556 8.968C135.94 9.064 136.26 8.904 136.324 8.488C136.708 6.344 136.612 4.424 135.748 3.24ZM135.044 10.984C134.212 9.736 132.516 9.224 130.756 8.872C130.276 8.776 129.956 8.936 129.828 9.32L128.228 14.504C128.1 14.92 128.26 15.176 128.708 15.272L134.98 16.424C135.396 16.488 135.652 16.328 135.716 15.88C135.94 13.864 135.78 12.072 135.044 10.984ZM144.868 13.768L144.676 16.328H143.204L143.396 13.768H144.868ZM149.956 16.328H148.388L148.58 13.768H150.18L149.956 16.328ZM142.884 20.936H144.356L144.132 24.008L142.66 24.104L142.884 20.936ZM147.812 23.752L148.036 20.936H149.572L149.348 23.624L147.812 23.752ZM169.316 4.968C169.444 3.528 169.412 2.664 169.476 1.768C169.476 1.48 169.252 1.32 168.836 1.32H163.236C162.852 1.32 162.628 1.512 162.564 1.896L159.972 16.744C159.908 17.128 160.1 17.416 160.484 17.48C161.252 17.608 161.988 17.576 162.66 17.416L163.94 22.344C164.068 22.824 164.388 22.92 164.772 22.664L168.708 20.168L168.484 21.64L160.58 27.208C160.292 27.432 160.132 27.72 160.324 28.04C161.124 29.736 163.268 30.6 165.252 30.6C167.94 30.6 170.884 28.84 172.644 27.048C176.132 23.56 176.676 19.016 177.284 10.184C177.54 6.376 175.62 4.968 172.9 4.968H169.316ZM185.604 12.2V1.96C185.604 1.544 185.38 1.32 184.964 1.32H179.172C178.756 1.32 178.532 1.544 178.532 1.96V29.96C178.532 30.376 178.756 30.6 179.172 30.6H184.964C185.38 30.6 185.604 30.376 185.604 29.96V21.544C185.956 21.736 186.308 21.96 186.724 22.12C187.108 22.312 187.428 22.12 187.524 21.704L188.74 16.008C188.804 15.688 188.708 15.4 188.484 15.176L185.604 12.2ZM165.796 15.4C166.756 14.344 167.524 12.968 168.068 11.432H169.924L169.124 17.032C168.228 16.2 167.044 15.656 165.796 15.4ZM216.676 8.264H220.324C220.74 8.264 220.964 8.04 220.964 7.624V3.496C220.964 3.08 220.74 2.856 220.324 2.856H212.42C212.452 2.504 212.452 2.152 212.484 1.8C212.484 1.384 212.26 1.16 211.844 1.16H206.34C205.956 1.16 205.7 1.384 205.668 1.768L204.74 12.072C204.708 12.552 204.964 12.776 205.412 12.68C208.196 12.04 210.052 10.504 211.14 8.264H214.756L205.924 14.568C205.572 14.824 205.508 15.144 205.796 15.464C206.116 15.816 206.404 16.072 206.692 16.296V29.96C206.692 30.376 206.916 30.6 207.332 30.6H212.068C212.484 30.6 212.708 30.376 212.708 29.96V16.84C215.044 16.04 217.188 14.28 219.14 11.88C219.396 11.56 219.396 11.24 219.14 10.952L216.676 8.264ZM200.26 12.008C200.26 11.464 200.292 10.888 200.292 10.28H203.972C204.388 10.28 204.612 10.056 204.612 9.64V4.584C204.612 4.168 204.388 3.944 203.972 3.944H201.636V2.472C201.636 2.056 201.412 1.832 200.996 1.832H195.556C195.14 1.832 194.916 2.056 194.916 2.472V3.944H193.476C193.06 3.944 192.836 4.168 192.836 4.584V9.64C192.836 10.056 193.06 10.28 193.476 10.28H194.18L193.828 20.232L192.772 29.608C192.74 29.96 192.868 30.248 193.252 30.376C193.828 30.568 194.276 30.632 194.788 30.632C196.452 30.632 197.572 28.264 198.244 25.096C198.244 28.456 199.556 30.6 201.316 30.6C203.428 30.6 204.932 28.328 204.932 25.192V17.608C204.932 13.864 203.876 12.008 201.028 12.008H200.26ZM219.812 16.2L218.788 16.936L218.596 15.912C218.532 15.496 218.244 15.304 217.828 15.432C215.492 16.072 214.116 17.608 213.892 19.528C213.636 21.512 213.796 25.768 214.5 29.736C214.596 30.152 214.852 30.344 215.268 30.248L220.452 29.256C220.868 29.16 221.028 28.904 220.964 28.488L219.588 21.256C220.036 21.16 220.452 21.032 220.836 20.84C221.156 20.648 221.252 20.424 221.188 20.04L220.612 16.552C220.548 16.072 220.196 15.912 219.812 16.2ZM198.436 23.912C198.692 22.344 198.852 20.648 198.884 18.984C198.884 18.76 198.884 18.568 198.916 18.344H200.004V23.912H198.436ZM228.708 2.408L225.028 11.24C224.868 11.656 224.996 11.944 225.412 12.072C226.276 12.296 227.172 12.392 228.036 12.328L225.028 19.56C224.868 19.976 224.996 20.264 225.412 20.392C225.988 20.552 226.596 20.616 227.204 20.648L226.5 29.928C226.468 30.376 226.692 30.6 227.108 30.6H233.028C233.412 30.6 233.668 30.376 233.7 29.992L234.5 19.72C234.532 19.272 234.308 19.048 233.892 19.048H232.292C233.956 17.544 234.916 14.76 235.428 11.944C235.524 11.528 235.3 11.272 234.916 11.208L232.26 10.76C233.956 9.256 234.916 6.44 235.428 3.624C235.524 3.208 235.3 2.952 234.916 2.888L229.508 1.96C229.156 1.896 228.836 2.056 228.708 2.408ZM237.06 2.952V8.232C237.06 8.648 237.284 8.872 237.7 8.872H251.94C252.356 8.872 252.58 8.648 252.58 8.232V2.952C252.58 2.536 252.356 2.312 251.94 2.312H237.7C237.284 2.312 237.06 2.536 237.06 2.952ZM236.868 10.76V16.04C236.868 16.456 237.092 16.68 237.508 16.68H244.74V24.264H242.02C241.604 24.264 241.38 24.488 241.38 24.936C241.54 29.256 243.236 30.888 246.372 30.888C249.284 30.888 251.652 29.416 251.652 25.736V16.68H252.772C253.188 16.68 253.412 16.456 253.412 16.04V10.76C253.412 10.344 253.188 10.12 252.772 10.12H237.508C237.092 10.12 236.868 10.344 236.868 10.76ZM268.26 5.192C268.036 3.624 266.468 1.928 264.708 0.967999C264.356 0.775999 264.068 0.775999 263.78 0.935999L259.94 3.016C259.492 3.272 259.46 3.656 259.94 3.88L262.692 5.192H257.988C257.572 5.192 257.348 5.416 257.348 5.832V8.712C257.348 9.128 257.572 9.352 257.988 9.352H270.212C270.628 9.352 270.852 9.128 270.852 8.712V5.832C270.852 5.416 270.628 5.192 270.212 5.192H268.26ZM275.492 11.048C276.868 10.184 278.084 8.264 278.948 5.992C279.076 7.144 279.556 8.328 280.42 9.608L272.58 13.256C272.228 13.416 272.068 13.704 272.196 14.088C273.06 16.936 274.82 17.064 277.38 16.392C279.684 15.784 282.212 14.152 283.716 13.064C284.004 12.84 284.068 12.616 283.972 12.232L283.588 10.856L285.956 7.976C286.212 7.688 286.212 7.368 285.956 7.08L281.124 1.704C280.9 1.48 280.644 1.352 280.324 1.352H275.364C275.012 1.352 274.788 1.48 274.628 1.832L270.628 10.152H257.988C257.572 10.152 257.348 10.376 257.348 10.792V13.672C257.348 14.088 257.572 14.312 257.988 14.312H270.212C270.628 14.312 270.852 14.088 270.852 13.672V10.824C272.356 11.784 273.988 11.976 275.492 11.048ZM270.852 18.6V15.72C270.852 15.304 270.628 15.08 270.212 15.08H257.988C257.572 15.08 257.348 15.304 257.348 15.72V18.6C257.348 19.016 257.572 19.24 257.988 19.24H270.212C270.628 19.24 270.852 19.016 270.852 18.6ZM277.38 23.08C279.78 22.44 282.34 20.776 283.844 19.656C284.036 19.496 284.068 19.272 283.972 18.92L283.076 15.848C282.948 15.4 282.628 15.272 282.244 15.464L272.58 19.944C272.228 20.104 272.068 20.392 272.196 20.776C273.06 23.624 274.82 23.752 277.38 23.08ZM267.78 19.848C266.276 19.848 264.356 20.136 263.204 20.52V20.296C263.204 20.168 262.98 20.072 262.564 20.072H258.372C257.956 20.072 257.764 20.264 257.764 20.712L257.988 29.96C257.988 30.344 258.276 30.6 258.66 30.6H262.852C263.268 30.6 263.492 30.408 263.492 30.12H270.116C270.532 30.12 270.756 29.896 270.756 29.48L270.724 22.504C270.724 20.232 269.124 19.848 267.78 19.848ZM271.62 27.432C272.676 30.664 274.692 31.016 277.764 30.248C280.58 29.512 283.556 27.496 285.316 26.216C285.636 25.992 285.7 25.768 285.604 25.384L284.484 21.608C284.356 21.16 284.036 21.032 283.652 21.224L271.972 26.6C271.62 26.76 271.46 27.048 271.62 27.432ZM263.332 24.168H265.252V26.216H263.364L263.332 24.168ZM311.332 8.296C314.66 8.232 316.676 7.176 318.084 6.056C318.244 5.928 318.244 5.672 318.052 5.352L316.228 1.992C316.068 1.672 315.78 1.512 315.428 1.608L306.66 3.656C306.276 3.752 306.052 4.04 306.18 4.456C306.756 6.44 307.748 7.688 309.508 8.136L307.14 8.104C306.724 8.104 306.5 8.328 306.5 8.744V19.176L306.468 19.784C305.988 18.472 305.348 17.32 304.644 16.808C304.132 16.424 303.62 16.36 303.108 16.456V15.784H305.22C305.636 15.784 305.86 15.56 305.86 15.144V11.336C305.86 10.92 305.636 10.696 305.22 10.696H303.044V10.024C303.588 10.184 304.196 10.12 304.74 9.672C305.38 9.16 305.988 8.072 306.436 6.824C306.564 6.472 306.468 6.216 306.212 5.96L304.516 4.424C304.132 4.072 303.78 4.2 303.652 4.68L303.012 7.112L302.948 2.44C302.948 2.024 302.724 1.8 302.308 1.8L299.204 1.832C298.788 1.832 298.564 2.056 298.564 2.472V4.776C298.02 4.296 297.38 4.168 296.74 4.2C296.324 4.232 296.164 4.488 296.196 4.904L296.708 9.32C296.772 9.736 297.06 9.928 297.476 9.8L298.596 9.512V10.696H296.932C296.516 10.696 296.292 10.92 296.292 11.336V15.144C296.292 15.56 296.516 15.784 296.932 15.784H297.508L296.004 22.312C295.908 22.696 296.004 22.984 296.356 23.144C297.284 23.528 298.148 23.336 298.884 22.664L298.692 24.008C298.628 24.424 298.884 24.68 299.3 24.68H302.564C302.98 24.68 303.204 24.456 303.204 24.04L303.14 19.912L303.652 21.8C303.78 22.28 304.164 22.376 304.516 22.056L306.436 20.296L305.924 30.024C305.892 30.44 306.084 30.664 306.468 30.728C308.324 31.112 309.86 30.344 310.724 27.432C311.236 25.736 311.332 22.76 311.332 19.528V16.36H312.708L312.74 29.96C312.74 30.376 312.964 30.6 313.38 30.6H317.06C317.476 30.6 317.7 30.376 317.7 29.96L317.668 16.36H317.988C318.18 16.36 318.308 16.136 318.308 15.72V11.048C318.308 10.632 318.084 10.408 317.668 10.408H311.332V8.296ZM289.924 4.616V29.96C289.924 30.376 290.148 30.6 290.564 30.6H295.012C295.428 30.6 295.652 30.376 295.652 29.96H304.612C305.028 29.96 305.252 29.736 305.252 29.32V25.768C305.252 25.352 305.028 25.128 304.612 25.128H295.652V4.616C295.652 4.2 295.428 3.976 295.012 3.976H290.564C290.148 3.976 289.924 4.2 289.924 4.616Z" fill="#222222"/>
</svg>
