<svg width="37" height="31" viewBox="0 0 37 31" fill="none" xmlns="http://www.w3.org/2000/svg">
<path d="M33.1699 7.51562C33.2181 7.70833 33.2422 8.02148 33.2422 8.45508C33.2422 11.0085 32.7604 13.5498 31.7969 16.0791C30.8333 18.6084 29.4723 20.9209 27.7139 23.0166C25.9554 25.1123 23.6791 26.8105 20.8848 28.1113C18.0905 29.4121 15.0072 30.0625 11.6348 30.0625C7.39516 30.0625 3.51694 28.9303 0 26.666C0.529951 26.7142 1.13216 26.7383 1.80664 26.7383C5.32359 26.7383 8.47915 25.6543 11.2734 23.4863C9.58723 23.4863 8.1058 22.9925 6.8291 22.0049C5.5524 21.0172 4.67318 19.7767 4.19141 18.2832C4.67318 18.3314 5.13086 18.3555 5.56445 18.3555C6.23894 18.3555 6.91341 18.2832 7.58789 18.1387C6.43163 17.8978 5.39584 17.416 4.48047 16.6934C3.5651 15.9707 2.84245 15.0915 2.3125 14.0557C1.78255 13.0199 1.51758 11.8997 1.51758 10.6953V10.5508C2.57748 11.1771 3.70963 11.5143 4.91406 11.5625C2.64973 10.0208 1.51758 7.90106 1.51758 5.20312C1.51758 3.85416 1.8789 2.57748 2.60156 1.37305C4.48048 3.73374 6.78091 5.61262 9.50293 7.00977C12.2249 8.40691 15.1276 9.17773 18.2109 9.32227C18.1146 8.74414 18.0664 8.16602 18.0664 7.58789C18.0664 5.51627 18.8011 3.73373 20.2705 2.24023C21.7399 0.746737 23.5104 0 25.582 0C27.7982 0 29.653 0.794914 31.1465 2.38477C32.8809 2.04752 34.4948 1.44532 35.9883 0.578125C35.4102 2.36069 34.3021 3.75781 32.6641 4.76953C34.1094 4.57682 35.5547 4.16732 37 3.54102C35.9401 5.08269 34.6634 6.40755 33.1699 7.51562Z" fill="white"/>
</svg>
