<svg width="48" height="40" viewBox="0 0 48 40" fill="none" xmlns="http://www.w3.org/2000/svg">
<path d="M15.095 39.0025C33.2083 39.0025 43.1155 23.9958 43.1155 10.982C43.1155 10.5558 43.1155 10.1315 43.0867 9.70906C45.0141 8.31497 46.6778 6.58883 48 4.61146C46.2026 5.40788 44.296 5.93017 42.3437 6.1609C44.3995 4.93014 45.9382 2.99438 46.6733 0.713857C44.7401 1.86097 42.6252 2.6694 40.4198 3.10426C38.935 1.52541 36.9712 0.479939 34.8324 0.129626C32.6935 -0.220688 30.4988 0.143686 28.5879 1.16636C26.677 2.18904 25.1564 3.813 24.2615 5.78695C23.3665 7.7609 23.1471 9.97479 23.6371 12.086C19.7218 11.8897 15.8914 10.8723 12.3948 9.09963C8.89821 7.32701 5.81345 4.83887 3.3408 1.79674C2.08146 3.96473 1.69574 6.53119 2.2622 8.97358C2.82865 11.416 4.30468 13.5506 6.38976 14.943C4.82254 14.8965 3.2895 14.4738 1.92 13.7103C1.92 13.7507 1.92 13.7929 1.92 13.8351C1.92062 16.1088 2.7077 18.3123 4.14774 20.0719C5.58778 21.8314 7.59212 23.0387 9.8208 23.4889C8.37095 23.8843 6.84975 23.9421 5.37408 23.6579C6.00338 25.6147 7.22854 27.3258 8.87822 28.5521C10.5279 29.7783 12.5196 30.4583 14.5747 30.4969C11.0875 33.2376 6.77963 34.7254 2.34432 34.7209C1.56077 34.7194 0.777992 34.672 0 34.5788C4.50362 37.4689 9.74383 39.002 15.095 38.9948" fill="#1DA1F2"/>
</svg>
